<svg width="22" height="28" viewBox="0 0 22 28" fill="none" xmlns="http://www.w3.org/2000/svg">
<path d="M10.9375 27.3473C12.6621 27.3473 14.0611 25.8295 14.0611 23.9567H7.814C7.814 25.8295 9.21292 27.3473 10.9375 27.3473ZM21.4546 19.416C20.5113 18.3162 18.7461 16.6618 18.7461 11.2422C18.7461 7.12584 16.086 3.83066 12.4991 3.02222V1.91817C12.4991 0.982065 11.7998 0.2229 10.9375 0.2229C10.0752 0.2229 9.37601 0.982065 9.37601 1.91817V3.02222C5.78909 3.83066 3.12894 7.12584 3.12894 11.2422C3.12894 16.6618 1.3638 18.3162 0.420444 19.416C0.127475 19.7578 -0.00240765 20.1662 3.37592e-05 20.5662C0.00540485 21.435 0.633822 22.2615 1.56742 22.2615H20.3076C21.2412 22.2615 21.8701 21.435 21.875 20.5662C21.8775 20.1662 21.7476 19.7572 21.4546 19.416Z" fill="#16C79C"/>
</svg>
