<svg width="30" height="25" viewBox="0 0 30 25" fill="none" xmlns="http://www.w3.org/2000/svg">
<path d="M28.6202 18.2275C28.7421 17.5391 28.7421 16.8359 28.6202 16.1475L29.8297 15.4199C29.9703 15.3369 30.0313 15.166 29.9844 15.0049C29.6703 13.9502 29.1312 12.9932 28.428 12.2021C28.3202 12.0801 28.1467 12.0508 28.0061 12.1338L26.7966 12.8613C26.2856 12.4072 25.6996 12.0557 25.0667 11.8213V10.3662C25.0667 10.2002 24.9542 10.0537 24.7995 10.0195C23.7541 9.77539 22.6899 9.78516 21.696 10.0195C21.5413 10.0537 21.4288 10.2002 21.4288 10.3662V11.8213C20.7959 12.0557 20.2099 12.4072 19.699 12.8613L18.4894 12.1338C18.3535 12.0508 18.1754 12.0801 18.0675 12.2021C17.3643 12.9932 16.8252 13.9502 16.5111 15.0049C16.4642 15.166 16.5299 15.3369 16.6658 15.4199L17.8753 16.1475C17.7534 16.8359 17.7534 17.5391 17.8753 18.2275L16.6658 18.9551C16.5252 19.0381 16.4642 19.209 16.5111 19.3701C16.8252 20.4248 17.3643 21.377 18.0675 22.1729C18.1754 22.2949 18.3488 22.3242 18.4894 22.2412L19.699 21.5137C20.2099 21.9678 20.7959 22.3193 21.4288 22.5537V24.0088C21.4288 24.1748 21.5413 24.3213 21.696 24.3555C22.7415 24.5996 23.8056 24.5898 24.7995 24.3555C24.9542 24.3213 25.0667 24.1748 25.0667 24.0088V22.5537C25.6996 22.3193 26.2856 21.9678 26.7966 21.5137L28.0061 22.2412C28.142 22.3242 28.3202 22.2949 28.428 22.1729C29.1312 21.3818 29.6703 20.4248 29.9844 19.3701C30.0313 19.209 29.9657 19.0381 29.8297 18.9551L28.6202 18.2275ZM23.2525 19.5557C21.9961 19.5557 20.9788 18.4912 20.9788 17.1875C20.9788 15.8838 22.0008 14.8193 23.2525 14.8193C24.5041 14.8193 25.5261 15.8838 25.5261 17.1875C25.5261 18.4912 24.5088 19.5557 23.2525 19.5557ZM10.5011 12.5C13.8155 12.5 16.5017 9.70215 16.5017 6.25C16.5017 2.79785 13.8155 0 10.5011 0C7.1867 0 4.50047 2.79785 4.50047 6.25C4.50047 9.70215 7.1867 12.5 10.5011 12.5ZM19.9334 23.5596C19.8255 23.501 19.7177 23.4326 19.6146 23.3691L19.2442 23.5938C18.9629 23.7598 18.6442 23.8525 18.3254 23.8525C17.8144 23.8525 17.3221 23.6279 16.9705 23.2373C16.1126 22.2705 15.4563 21.0938 15.086 19.8389C14.8281 18.9746 15.175 18.0615 15.9251 17.6074L16.2955 17.3828C16.2908 17.2559 16.2908 17.1289 16.2955 17.002L15.9251 16.7773C15.175 16.3281 14.8281 15.4102 15.086 14.5459C15.1282 14.4043 15.1891 14.2627 15.236 14.1211C15.0578 14.1064 14.8844 14.0625 14.7016 14.0625H13.9187C12.8779 14.5605 11.72 14.8438 10.5011 14.8438C9.28223 14.8438 8.12898 14.5605 7.08356 14.0625H6.30066C2.82217 14.0625 0 17.002 0 20.625V22.6562C0 23.9502 1.00792 25 2.25024 25H18.752C19.2255 25 19.6661 24.8438 20.0271 24.585C19.9709 24.3994 19.9334 24.209 19.9334 24.0088V23.5596Z" fill="#16C79C"/>
</svg>
