<svg width="25" height="21" viewBox="0 0 25 21" fill="none" xmlns="http://www.w3.org/2000/svg">
<path d="M24.5264 7.28033C24.7168 7.1161 25 7.26973 25 7.52932V18.3632C25 19.7671 23.9502 20.9061 22.6562 20.9061H2.34375C1.0498 20.9061 0 19.7671 0 18.3632V7.53462C0 7.26973 0.27832 7.1214 0.473633 7.28563C1.56738 8.20743 3.01758 9.37823 7.99805 13.3039C9.02832 14.1197 10.7666 15.8362 12.5 15.8256C14.2432 15.8415 16.0156 14.0879 17.0068 13.3039C21.9873 9.37823 23.4326 8.20214 24.5264 7.28033ZM12.5 14.125C13.6328 14.1462 15.2637 12.5781 16.084 11.9317C22.5635 6.83002 23.0566 6.38501 24.5508 5.11356C24.834 4.87516 25 4.50432 25 4.11229V3.10572C25 1.70182 23.9502 0.562805 22.6562 0.562805H2.34375C1.0498 0.562805 0 1.70182 0 3.10572V4.11229C0 4.50432 0.166016 4.86986 0.449219 5.11356C1.94336 6.37971 2.43652 6.83002 8.91602 11.9317C9.73633 12.5781 11.3672 14.1462 12.5 14.125Z" fill="#16C79C"/>
</svg>
