<svg width="25" height="23" viewBox="0 0 25 23" fill="none" xmlns="http://www.w3.org/2000/svg">
<path d="M21.072 0L25 6.94444H20.612L17.6085 0H21.072ZM15.5165 0L18.52 6.94444H6.48003L9.48351 0H15.5165ZM3.92795 0H7.39149L4.38802 6.94444H0L3.92795 0ZM0 8.33333H4.37066L9.7092 19.2578C9.77431 19.3924 9.59201 19.5139 9.49219 19.401L0 8.33333ZM6.43229 8.33333H18.5677L12.6215 22.1441C12.5781 22.2483 12.4262 22.2483 12.3828 22.1441L6.43229 8.33333ZM15.2908 19.2578L20.6293 8.33333H25L15.5078 19.3967C15.408 19.5139 15.2257 19.3924 15.2908 19.2578V19.2578Z" fill="black" fill-opacity="0.2"/>
</svg>
