<svg width="36" height="40" viewBox="0 0 36 40" fill="none" xmlns="http://www.w3.org/2000/svg">
<path d="M8.00613 16.8013L0.0899987 28.9801C-0.140998 29.3707 0.0974986 29.8785 0.534742 29.9285L16.154 31.6527L8.00613 16.8013ZM0.555742 24.6426L6.20241 15.0842L0.454493 11.492C0.254246 11.367 0 11.517 0 11.76V24.4794C0 24.7942 0.396744 24.9114 0.555742 24.6426ZM1.36873 33.0933L15.9485 39.9417C16.346 40.1331 16.7998 39.83 16.7998 39.3745V34.2441L1.53373 32.5019C1.19998 32.4629 1.06648 32.9386 1.36873 33.0933ZM7.46014 12.9545L13.4548 1.78748C13.7803 1.23592 13.1856 0.596086 12.6463 0.917176L1.33573 8.62098C1.15048 8.74754 1.15648 9.03191 1.34548 9.15066L7.46014 12.9545ZM17.9997 13.7498H26.1904L19.022 0.595305C18.7872 0.198435 18.3935 0 17.9997 0C17.606 0 17.2122 0.198435 16.9775 0.595305L9.80911 13.7498H17.9997ZM35.545 11.492L29.7971 15.085L35.4437 24.6434C35.602 24.9122 35.9995 24.795 35.9995 24.4794V11.76C35.9995 11.517 35.7452 11.367 35.545 11.492ZM28.5393 12.9545L34.654 9.14988C34.8437 9.03113 34.849 8.74676 34.6637 8.6202L23.3532 0.917176C22.8139 0.596086 22.2192 1.23592 22.5447 1.78748L28.5393 12.9545ZM34.4657 32.5019L19.1997 34.2433V39.3737C19.1997 39.83 19.6535 40.1323 20.051 39.9409L34.6307 33.0925C34.933 32.9386 34.7995 32.4629 34.4657 32.5019ZM27.9933 16.8013L19.8462 31.6527L35.4655 29.9285C35.9027 29.8777 36.1412 29.3707 35.9102 28.9801L27.9933 16.8013ZM17.9997 16.2498H10.4676L17.9997 29.9801L25.5319 16.2498H17.9997Z" fill="#16C79C"/>
</svg>
